 http://www.nfi.no/english/norwegianfilms/show.html?id=735



General
Complete name                    : Man Woman Coffee.mkv
Format                           : Matroska
File size                        : 1.25 GiB
Duration                         : 1h 11mn
Overall bit rate                 : 2 496 Kbps

Video
ID                               : 1
Format                           : AVC
Duration                         : 1h 11mn
Bit rate                         : 1 999 Kbps
Width                            : 720 pixels
Height                           : 544 pixels
Display aspect ratio             : 1.855
Frame rate                       : 25.000 fps
Resolution                       : 8 bits
Colorimetry                      : 4:2:0
Scan type                        : Progressive
Bits/(Pixel*Frame)               : 0.204
Stream size                      : 1.00 GiB (80%)
Writing library                  : x264 core 79


Audio
ID                               : 2
Format                           : AC-3
Format/Info                      : Audio Coding 3
Codec ID                         : A_AC3
Duration                         : 1h 11mn
Bit rate mode                    : Constant
Bit rate                         : 448 Kbps
Channel(s)                       : 6 channels
Channel positions                : Front: L C R, Surround: L R, LFE
Sampling rate                    : 48.0 KHz
Stream size                      : 230 MiB (18%)
Language                         : Italien

Text #1
Language                         : Norwegian

Text #2
Language                         : Danish

Text #3
Language                         : Swedish

Text #4
Language                         : Finnish

Text #5
Language                         : English

Menu
00:00:00.000                     : Chapter  1
00:11:00.440                     : Chapter  2
00:22:52.520                     : Chapter  3
00:35:51.560                     : Chapter  4
00:49:42.120                     : Chapter  5
01:01:56.720                     : Chapter  6

